# xmcd
#
# Track frame offsets:
#	150
#	15883
#	29604
#	46863
#	63522
#	81607
#	100341
#	117460
#	137171
#	157819
#	191343
#	215427
#	231556
#	244843
#	261823
#
# Disc length: 3689 seconds
#
# Revision: 0
# Processed by: cddbd v1.5.2PL0 Copyright (c) Steve Scherf et al.
# Submitted via: audiograbber 1.83.01
#
DISCID=d00e670f
DTITLE=JonesTM - HC200727
DYEAR=2007
DGENRE=Country
TTITLE0=Josh Turner - Firecracker
TTITLE1=Chris Cagle - What Kinda Gone
TTITLE2=Brad Cotter - God's Fingerprints
TTITLE3=Zachary Hunter - In Your Dreams
TTITLE4=Rascal Flatts - Take Me There [Radio Edit]
TTITLE5=Pretty Ricky - Love Like Honey [Radio Edit]
TTITLE6=Ne-Yo Feat. Mary J. Blige - Do You (Remix)
TTITLE7=Angie Stone Feat. Betty Wright - Baby [Radio Edit]
TTITLE8=Phil Perry - The World Is A Ghetto
TTITLE9=Dayna Stephens and John Scofield - On The Trail [Album Version]
TTITLE10=Eddie Gip Noble - Noble Cause [Album Version]
TTITLE11=Wayman Tisdale - Let's Do It Again
TTITLE12=Simply Red - Stay [Radio Mix]
TTITLE13=Ryan Shaw - We Got Love
TTITLE14=Keith Jacobson - Get Up
EXTD=
EXTT0=
EXTT1=
EXTT2=
EXTT3=
EXTT4=
EXTT5=
EXTT6=
EXTT7=
EXTT8=
EXTT9=
EXTT10=
EXTT11=
EXTT12=
EXTT13=
EXTT14=
PLAYORDER=
